<?xml version="1.0" encoding="UTF-8" standalone="no"?>
<svg
		width="1024"
		height="1024"
		version="1.1"
		viewBox="0 -154 1024 1024"
		id="svg287"
		xmlns="http://www.w3.org/2000/svg"
		xmlns:svg="http://www.w3.org/2000/svg">
	<defs
			id="defs281">
		<linearGradient
				id="b"
				x1="122"
				x2="122"
				y1="-40"
				y2="720"
				gradientTransform="matrix(1.373 0 0 1.347 -167.5 -100.1)"
				gradientUnits="userSpaceOnUse">
			<stop
					stop-color="#4371c1"
					offset="0"
					id="stop260"/>
			<stop
					stop-color="#2d4f8c"
					offset="1"
					id="stop262"/>
		</linearGradient>
		<linearGradient
				id="a"
				x1="983.1"
				x2="983.1"
				y1="25"
				y2="999"
				gradientTransform="matrix(1.096 0 0 1.05 -54.28 -179.7)"
				gradientUnits="userSpaceOnUse">
			<stop
					stop-color="#fff"
					offset="0"
					id="stop265"/>
			<stop
					stop-color="#91b6f7"
					offset="1"
					id="stop267"/>
		</linearGradient>
		<filter
				id="c"
				x="0"
				y="0"
				width="1"
				height="1"
				color-interpolation-filters="sRGB">
			<feComposite
					in="SourceGraphic"
					in2="SourceGraphic"
					result="composite2"
					id="feComposite278"/>
		</filter>
	</defs>
	<path
			d="M 402,-154 C 268,31 134,216 0,401 c 0,105.66667 0,211.33333 0,317 207.66667,0 415.33333,0 623,0 0,50.66667 0,101.33333 0,152 133.66667,0 267.33333,0 401,0 0,-341.33333 0,-682.66667 0,-1024 -207.33333,0 -414.66667,0 -622,0 z m 222,256 c 0,113.33333 0,226.66667 0,340 -89.33333,0 -178.66667,0 -268,0 89.33333,-113.33333 178.66667,-226.66667 268,-340 z"
			fill="url(#a)"
			fill-rule="evenodd"
			filter="url(#c)"
			id="path285"
			style="display:inline;fill:#212529"
			transform="matrix(0.78125,0,0,0.78125,112,78.3125)"/>
</svg>
