<?xml version="1.0" encoding="UTF-8" standalone="no"?>
<svg
   inkscape:export-ydpi="12.07"
   inkscape:export-xdpi="12.07"
   inkscape:export-filename="/home/koitharu/Documents/android/projects/Kotatsu/app/src/main/res/mipmap-xxxhdpi/ic_launcher.png"
   width="404mm"
   height="404mm"
   viewBox="0 0 404.00001 404.00002"
   version="1.1"
   id="svg8"
   inkscape:version="1.1.2 (0a00cf5339, 2022-02-04, custom)"
   sodipodi:docname="icon4_retro.svg"
   xmlns:inkscape="http://www.inkscape.org/namespaces/inkscape"
   xmlns:sodipodi="http://sodipodi.sourceforge.net/DTD/sodipodi-0.dtd"
   xmlns="http://www.w3.org/2000/svg"
   xmlns:svg="http://www.w3.org/2000/svg"
   xmlns:rdf="http://www.w3.org/1999/02/22-rdf-syntax-ns#"
   xmlns:cc="http://creativecommons.org/ns#"
   xmlns:dc="http://purl.org/dc/elements/1.1/">
  <defs
     id="defs2">
    <filter
       style="color-interpolation-filters:sRGB"
       inkscape:label="Drop Shadow"
       id="filter1266">
      <feFlood
         flood-opacity="0.498039"
         flood-color="rgb(0,0,0)"
         result="flood"
         id="feFlood1256" />
      <feComposite
         in="flood"
         in2="SourceGraphic"
         operator="in"
         result="composite1"
         id="feComposite1258" />
      <feGaussianBlur
         in="composite1"
         stdDeviation="3"
         result="blur"
         id="feGaussianBlur1260" />
      <feOffset
         dx="6"
         dy="6"
         result="offset"
         id="feOffset1262" />
      <feComposite
         in="SourceGraphic"
         in2="offset"
         operator="over"
         result="composite2"
         id="feComposite1264" />
    </filter>
    <filter
       style="color-interpolation-filters:sRGB"
       inkscape:label="Drop Shadow"
       id="filter1059"
       x="-0.024000086"
       y="-0.018000117"
       width="1.0680002"
       height="1.0510004">
      <feFlood
         flood-opacity="0.498039"
         flood-color="rgb(0,0,0)"
         result="flood"
         id="feFlood1049" />
      <feComposite
         in="flood"
         in2="SourceGraphic"
         operator="in"
         result="composite1"
         id="feComposite1051" />
      <feGaussianBlur
         in="composite1"
         stdDeviation="3"
         result="blur"
         id="feGaussianBlur1053" />
      <feOffset
         dx="6"
         dy="6"
         result="offset"
         id="feOffset1055" />
      <feComposite
         in="SourceGraphic"
         in2="offset"
         operator="over"
         result="composite2"
         id="feComposite1057" />
    </filter>
    <filter
       style="color-interpolation-filters:sRGB"
       inkscape:label="Drop Shadow"
       id="filter1071">
      <feFlood
         flood-opacity="0.498039"
         flood-color="rgb(0,0,0)"
         result="flood"
         id="feFlood1061" />
      <feComposite
         in="flood"
         in2="SourceGraphic"
         operator="in"
         result="composite1"
         id="feComposite1063" />
      <feGaussianBlur
         in="composite1"
         stdDeviation="3"
         result="blur"
         id="feGaussianBlur1065" />
      <feOffset
         dx="6"
         dy="6"
         result="offset"
         id="feOffset1067" />
      <feComposite
         in="SourceGraphic"
         in2="offset"
         operator="over"
         result="composite2"
         id="feComposite1069" />
    </filter>
    <filter
       style="color-interpolation-filters:sRGB"
       inkscape:label="Drop Shadow"
       id="filter913"
       x="-0.039272983"
       y="-0.036000129"
       width="1.1112734"
       height="1.1020004">
      <feFlood
         flood-opacity="0.498039"
         flood-color="rgb(0,0,0)"
         result="flood"
         id="feFlood903" />
      <feComposite
         in="flood"
         in2="SourceGraphic"
         operator="in"
         result="composite1"
         id="feComposite905" />
      <feGaussianBlur
         in="composite1"
         stdDeviation="3"
         result="blur"
         id="feGaussianBlur907" />
      <feOffset
         dx="6"
         dy="6"
         result="offset"
         id="feOffset909" />
      <feComposite
         in="SourceGraphic"
         in2="offset"
         operator="over"
         result="composite2"
         id="feComposite911" />
    </filter>
  </defs>
  <sodipodi:namedview
     id="base"
     pagecolor="#ffffff"
     bordercolor="#666666"
     borderopacity="1.0"
     inkscape:pageopacity="0"
     inkscape:pageshadow="2"
     inkscape:zoom="0.23690961"
     inkscape:cx="50.65223"
     inkscape:cy="882.19301"
     inkscape:document-units="mm"
     inkscape:current-layer="layer1"
     inkscape:document-rotation="0"
     showgrid="false"
     inkscape:window-width="1600"
     inkscape:window-height="831"
     inkscape:window-x="0"
     inkscape:window-y="0"
     inkscape:window-maximized="1"
     fit-margin-top="2"
     fit-margin-left="2"
     fit-margin-right="2"
     fit-margin-bottom="2"
     inkscape:pagecheckerboard="0" />
  <metadata
     id="metadata5">
    <rdf:RDF>
      <cc:Work
         rdf:about="">
        <dc:format>image/svg+xml</dc:format>
        <dc:type
           rdf:resource="http://purl.org/dc/dcmitype/StillImage" />
      </cc:Work>
    </rdf:RDF>
  </metadata>
  <g
     inkscape:label="Слой 1"
     inkscape:groupmode="layer"
     id="layer1"
     transform="translate(-155.12078,-158.74884)">
    <g
       id="g1028"
       transform="matrix(6.9754464,0,0,6.9754464,32.42507,404.31391)" />
    <g
       id="g1030"
       transform="matrix(6.9754464,0,0,6.9754464,32.42507,404.31391)" />
    <g
       id="g1032"
       transform="matrix(6.9754464,0,0,6.9754464,32.42507,404.31391)" />
    <g
       id="g1034"
       transform="matrix(6.9754464,0,0,6.9754464,32.42507,404.31391)" />
    <g
       id="g1036"
       transform="matrix(6.9754464,0,0,6.9754464,32.42507,404.31391)" />
    <g
       id="g1038"
       transform="matrix(6.9754464,0,0,6.9754464,32.42507,404.31391)" />
    <g
       id="g1040"
       transform="matrix(6.9754464,0,0,6.9754464,32.42507,404.31391)" />
    <g
       id="g1042"
       transform="matrix(6.9754464,0,0,6.9754464,32.42507,404.31391)" />
    <g
       id="g1044"
       transform="matrix(6.9754464,0,0,6.9754464,32.42507,404.31391)" />
    <g
       id="g1046"
       transform="matrix(6.9754464,0,0,6.9754464,32.42507,404.31391)" />
    <g
       id="g1048"
       transform="matrix(6.9754464,0,0,6.9754464,32.42507,404.31391)" />
    <g
       id="g1050"
       transform="matrix(6.9754464,0,0,6.9754464,32.42507,404.31391)" />
    <g
       id="g1052"
       transform="matrix(6.9754464,0,0,6.9754464,32.42507,404.31391)" />
    <g
       id="g1054"
       transform="matrix(6.9754464,0,0,6.9754464,32.42507,404.31391)" />
    <g
       id="g1056"
       transform="matrix(6.9754464,0,0,6.9754464,32.42507,404.31391)" />
    <g
       style="fill:#ffffff"
       id="g1138"
       transform="matrix(0.78124721,0,0,0.78124721,107.12096,160.74809)"
       inkscape:groupmode="layer" />
    <g
       style="fill:#ffffff"
       id="g1140"
       transform="matrix(0.78124721,0,0,0.78124721,107.12096,160.74809)" />
    <g
       style="fill:#ffffff"
       id="g1142"
       transform="matrix(0.78124721,0,0,0.78124721,107.12096,160.74809)" />
    <g
       style="fill:#ffffff"
       id="g1144"
       transform="matrix(0.78124721,0,0,0.78124721,107.12096,160.74809)" />
    <g
       style="fill:#ffffff"
       id="g1146"
       transform="matrix(0.78124721,0,0,0.78124721,107.12096,160.74809)" />
    <g
       style="fill:#ffffff"
       id="g1148"
       transform="matrix(0.78124721,0,0,0.78124721,107.12096,160.74809)" />
    <g
       style="fill:#ffffff"
       id="g1150"
       transform="matrix(0.78124721,0,0,0.78124721,107.12096,160.74809)" />
    <g
       style="fill:#ffffff"
       id="g1152"
       transform="matrix(0.78124721,0,0,0.78124721,107.12096,160.74809)" />
    <g
       style="fill:#ffffff"
       id="g1154"
       transform="matrix(0.78124721,0,0,0.78124721,107.12096,160.74809)" />
    <g
       style="fill:#ffffff"
       id="g1156"
       transform="matrix(0.78124721,0,0,0.78124721,107.12096,160.74809)" />
    <g
       style="fill:#ffffff"
       id="g1158"
       transform="matrix(0.78124721,0,0,0.78124721,107.12096,160.74809)" />
    <g
       style="fill:#ffffff"
       id="g1160"
       transform="matrix(0.78124721,0,0,0.78124721,107.12096,160.74809)" />
    <g
       style="fill:#ffffff"
       id="g1162"
       transform="matrix(0.78124721,0,0,0.78124721,107.12096,160.74809)" />
    <g
       style="fill:#ffffff"
       id="g1164"
       transform="matrix(0.78124721,0,0,0.78124721,107.12096,160.74809)" />
    <g
       style="fill:#ffffff"
       id="g1166"
       transform="matrix(0.78124721,0,0,0.78124721,107.12096,160.74809)" />
    <g
       id="g337"
       transform="translate(50.00043,0.00109186)">
      <path
         id="rect89"
         style="fill:#ffffff;fill-rule:evenodd;stroke-width:0.264583"
         d="m 257.18742,160.749 c -1.28611,-0.008 -2.58663,0.27712 -3.79512,0.8692 -2.13202,1.07421 -20.54045,11.54 -21.25606,54.86797 -2.52655,3.76327 -7.98651,12.14598 -14.78257,23.6647 l -8.27339,14.49214 c -3.28983,5.95701 -6.73078,12.47087 -10.21437,19.38022 l -7.4445,15.32567 c -17.72573,38.05377 -34.30024,85.42896 -34.30024,129.72799 0,69.32086 58.26744,128.42068 60.75804,130.89485 0.91173,0.91175 2.03454,1.61121 3.25562,2.01745 1.07421,0.35859 26.78975,8.7571 69.31929,8.7571 2.21327,0 4.32965,-0.87871 5.89215,-2.44121 l 5.89215,-5.89213 h 9.76581 l 5.89214,5.89213 c 1.5625,1.5625 3.67812,2.44121 5.89215,2.44121 42.52955,0 68.24504,-8.39851 69.31928,-8.7571 1.22108,-0.40701 2.34337,-1.10649 3.2551,-2.01745 2.48904,-2.47417 60.75702,-61.5732 60.75702,-130.89485 0,-44.29903 -16.57502,-91.67422 -34.30075,-129.72799 l -7.45639,-15.34686 c -3.48203,-6.90544 -6.92014,-13.41703 -10.2092,-19.37091 l -8.2672,-14.47974 c -6.79605,-11.51871 -12.25703,-19.90273 -14.78359,-23.66522 -0.71639,-43.32797 -19.12402,-53.79376 -21.25607,-54.86797 -3.20621,-1.5789 -7.09612,-0.97635 -9.61956,1.56269 -12.25621,12.25622 -20.23102,24.46303 -24.00681,30.89269 h -40.20168 c -3.77577,-6.42888 -11.75138,-18.63647 -24.0068,-30.89269 -1.57666,-1.5869 -3.68093,-2.41773 -5.82445,-2.43189 z" />
      <ellipse
         style="fill:#ffffff;fill-opacity:1;stroke-width:0.292632"
         id="path901"
         cx="306.96219"
         cy="376.52112"
         rx="127.75643"
         ry="170.26222" />
      <path
         id="path1130"
         d="m 415.36283,274.00237 c -3.48202,-6.90544 -6.92029,-13.41714 -10.20934,-19.37102 l -8.26716,-14.47964 c -6.79607,-11.51871 -12.25699,-19.90305 -14.78354,-23.66554 -0.7164,-43.32797 -19.12415,-53.79356 -21.25617,-54.86777 -3.20624,-1.5789 -7.09607,-0.97656 -9.6195,1.56249 -12.25621,12.25621 -20.23118,24.4632 -24.00695,30.89286 h -40.20141 c -3.77577,-6.42888 -11.75153,-18.63665 -24.00695,-30.89286 -2.52265,-2.53905 -6.39685,-3.14139 -9.6195,-1.56249 -2.13202,1.07421 -20.54055,11.5398 -21.25617,54.86777 -2.52655,3.76327 -7.98669,12.14605 -14.78276,23.66476 l -8.27341,14.49214 c -3.28983,5.95701 -6.73044,12.47105 -10.21403,19.3804 l -7.4445,15.32572 c -17.72572,38.05377 -34.30066,85.4286 -34.30066,129.72766 0,69.32085 58.26776,128.42064 60.75838,130.89485 0.91171,0.91172 2.03437,1.61171 3.25546,2.01796 1.07421,0.35859 26.78974,8.757 69.31928,8.757 2.21327,0 4.32967,-0.8789 5.89217,-2.4414 l 5.89216,-5.89216 h 9.76559 l 5.89217,5.89216 c 1.56249,1.5625 3.67811,2.4414 5.89216,2.4414 42.52954,0 68.24507,-8.39841 69.31929,-8.757 1.22109,-0.40703 2.34374,-1.10703 3.25546,-2.01796 2.48905,-2.47421 60.75681,-61.57322 60.75681,-130.89485 0,-44.29906 -16.57494,-91.67389 -34.30066,-129.72766 z M 348.7865,227.41426 c 4.60624,0 4.41171,7.35466 4.41171,11.96089 4.60623,0 12.25464,0.1 12.25464,4.70624 0,9.19606 -7.47107,16.66634 -16.66635,16.66634 -9.19528,0 -16.66634,-7.47028 -16.66634,-16.66634 0,-9.19606 7.47106,-16.66713 16.66634,-16.66713 z m -57.69823,30.14364 c 1.28593,-3.10858 4.32967,-5.14295 7.69841,-5.14295 h 16.66635 c 3.36952,0 6.41248,2.03437 7.69841,5.14295 1.28593,3.10858 0.56953,6.70545 -1.80703,9.082 l -8.33356,8.33356 c -1.62734,1.62734 -3.76014,2.4414 -5.89217,2.4414 -2.13202,0 -4.26404,-0.81406 -5.89216,-2.4414 l -8.33357,-8.33356 c -2.37421,-2.37655 -3.09061,-5.97342 -1.80468,-9.082 z m -25.63428,-30.14364 c 4.60623,0 4.4117,7.35466 4.4117,11.96089 4.60623,0 12.25465,0.1 12.25465,4.70624 0,9.19606 -7.47107,16.66634 -16.66635,16.66634 -9.19606,0 -16.66635,-7.47106 -16.66635,-16.66634 -7.8e-4,-9.19606 7.47029,-16.66713 16.66635,-16.66713 z m 41.66626,299.99893 c -59.7326,0 -108.33321,-52.34357 -108.33321,-116.66599 0,-64.32243 48.60061,-116.66599 108.33321,-116.66599 59.73259,0 108.3332,52.34356 108.3332,116.66599 0,64.32242 -48.60061,116.66599 -108.3332,116.66599 z"
         style="fill:#1976d2;fill-opacity:1;stroke-width:0.781247"
         sodipodi:nodetypes="cccccccccccccccsccssccssccsccscsssssssssssccsscsscssssss" />
      <path
         style="fill:#ef5350;fill-opacity:1;stroke:none;stroke-width:6.9558;stroke-linecap:round;stroke-linejoin:round"
         d="m 339.12291,399.608 c -5.59551,-4.09062 -6.5267,-14.37276 -1.76965,-19.54048 0.66193,-0.71905 6.49745,-4.55127 12.96785,-8.51604 9.17647,-5.62289 12.35787,-7.20862 14.46255,-7.20862 2.10886,0 5.37892,1.63637 14.97105,7.49165 14.25198,8.69977 15.32687,9.9068 15.32687,17.21161 0,5.04597 -1.21003,7.72026 -4.86625,10.75504 -3.74796,3.11092 -6.61347,2.49842 -16.54124,-3.53578 l -8.75041,-5.31854 -8.96034,5.33071 c -10.19904,6.06765 -12.47937,6.5186 -16.84043,3.33045 z"
         id="path944" />
      <path
         style="fill:#ef5350;fill-opacity:1;stroke:none;stroke-width:6.94266;stroke-linecap:round;stroke-linejoin:round"
         d="m 282.92002,377.47519 c -4.46966,-3.65458 -5.96089,-12.51283 -3.08643,-18.33416 1.90086,-3.84957 23.97012,-18.98961 27.68072,-18.98961 1.809,0 5.33798,1.96387 14.13206,7.86443 9.87487,6.62575 11.93439,8.32752 13.07591,10.80444 2.03213,4.40937 2.25804,8.72134 0.68091,12.99556 -1.76585,4.7857 -3.89849,6.70707 -7.94388,7.15697 -3.10218,0.34498 -3.89583,-0.005 -11.83213,-5.21095 l -8.50693,-5.58071 -8.14606,5.47408 c -9.14568,6.14586 -12.29348,6.89484 -16.05417,3.81995 z"
         id="path946" />
      <path
         style="fill:#ef5350;fill-opacity:1;stroke:none;stroke-width:6.433;stroke-linecap:round;stroke-linejoin:round"
         d="m 224.56166,394.94861 c -1.18737,-0.72373 -2.81061,-2.40276 -3.60719,-3.73113 -1.22646,-2.0452 -1.41189,-3.09375 -1.21048,-6.84467 0.33659,-6.26842 1.63593,-7.5888 14.95359,-15.19582 8.93959,-5.10625 11.58446,-6.31494 13.81861,-6.31494 2.25813,0 4.89989,1.23584 14.45797,6.76359 10.04149,5.80731 11.89833,7.13871 13.13311,9.41665 4.09864,7.56129 -0.64113,17.22228 -8.4494,17.22228 -1.45148,0 -4.97776,-1.59794 -10.52717,-4.77038 l -8.34462,-4.77034 -8.54478,4.78125 c -9.35975,5.23725 -11.84243,5.78247 -15.67964,3.44351 z"
         id="path948" />
      <path
         id="path1128"
         d="m 307.12025,310.74755 c -50.53732,0 -91.66608,44.85688 -91.66608,99.99965 0,55.14277 41.12954,99.99964 91.66608,99.99964 50.53653,0 91.66607,-44.85687 91.66607,-99.99964 0,-55.14277 -41.12875,-99.99965 -91.66607,-99.99965 z m -34.21238,78.72707 c -1.46484,2.91327 -4.41092,4.60623 -7.45466,4.60623 -1.25312,0 -2.52265,-0.27656 -3.72733,-0.8789 l -12.9398,-6.4781 -12.9398,6.4781 c -4.13436,2.06718 -9.11481,0.37421 -11.18199,-3.72733 -2.05077,-4.11796 -0.39062,-9.11481 3.72733,-11.18199 l 16.66635,-8.33357 c 2.34374,-1.17187 5.11092,-1.17187 7.45466,0 l 16.66635,8.33357 c 4.11951,2.06718 5.77966,7.06403 3.72889,11.18199 z m 58.33338,-24.99991 c -1.46484,2.91327 -4.41092,4.60623 -7.45466,4.60623 -1.25312,0 -2.52264,-0.27656 -3.72733,-0.8789 l -12.93901,-6.47811 -12.9398,6.47811 c -4.13436,2.06718 -9.11481,0.37421 -11.18199,-3.72733 -2.05078,-4.11796 -0.39063,-9.11482 3.72733,-11.182 l 16.66634,-8.33356 c 2.34375,-1.17187 5.11092,-1.17187 7.45466,0 l 16.66635,8.33356 c 4.11874,2.06718 5.77889,7.06404 3.72811,11.182 z m 54.60606,13.81792 c 4.11795,2.06718 5.7781,7.06403 3.72733,11.18199 -1.46484,2.91327 -4.41092,4.60623 -7.45466,4.60623 -1.25312,0 -2.52265,-0.27656 -3.72733,-0.8789 l -12.9398,-6.4781 -12.9398,6.4781 c -4.11795,2.06718 -9.11481,0.37421 -11.18199,-3.72733 -2.05077,-4.11796 -0.39062,-9.11481 3.72733,-11.18199 l 16.66635,-8.33357 c 2.34374,-1.17187 5.11092,-1.17187 7.45466,0 z"
         style="fill:#1976d2;fill-opacity:1;stroke-width:0.781247" />
    </g>
  </g>
</svg>
